<svg width="147" height="137" viewBox="0 0 147 137" fill="none" xmlns="http://www.w3.org/2000/svg">
<path id="Vector" d="M0 0V136H9.1875H18.375H72.4696H128.625H137.812H147V0H0ZM18.375 126.933H9.1875V117.867H18.375V126.933ZM18.375 108.8H9.1875V99.7333H18.375V108.8ZM18.375 90.6667H9.1875V81.6H18.375V90.6667ZM18.375 72.5333H9.1875V63.4667H18.375V72.5333ZM18.375 54.4H9.1875V45.3333H18.375V54.4ZM18.375 36.2667H9.1875V27.2H18.375V36.2667ZM18.375 18.1333H9.1875V9.06667H18.375V18.1333ZM119.438 136H27.5625V63.3985H38.325H49.875H72.4696H119.7V99.7333L119.438 136ZM119.7 55.218H72.4696H27.5625V9.20301H73.6526L119.7 9.06667V33.2331V55.218ZM137.812 126.933H128.625V117.867H137.812V126.933ZM137.812 108.8H128.625V99.7333H137.812V108.8ZM137.812 90.6667H128.625V81.6H137.812V90.6667ZM137.812 72.5333H128.625V63.4667H137.812V72.5333ZM137.812 54.4H128.625V45.3333H137.812V54.4ZM137.812 36.2667H128.625V27.2H137.812V36.2667ZM137.812 18.1333H128.625V9.06667H137.812V18.1333Z" fill="#D4AF37"/>
<path id="Rectangle 3" d="M116 0H119.731V9.21065H118H116V0Z" fill="#202020"/>
<path id="Rectangle 2" d="M116.206 55.1622L118.206 55.1622H119.706V63.5H116.206V55.1622Z" fill="#202020"/>
<path id="Inspire" d="M46.2305 132V130.734H48.3398V120.445H46.2305V119.168H52.1602V120.445H50.0039V130.734H52.1602V132H46.2305ZM54.9375 132C54.9375 132 54.9375 131.805 54.9375 131.414C54.9375 131.023 54.9375 130.535 54.9375 129.949C54.9375 129.355 54.9375 128.758 54.9375 128.156C54.9375 127.547 54.9375 127.027 54.9375 126.598C54.9375 125.738 54.8867 125.008 54.7852 124.406C54.6914 123.797 54.5938 123.34 54.4922 123.035H56.0742C56.1445 123.223 56.2109 123.504 56.2734 123.879C56.3438 124.254 56.3945 124.547 56.4258 124.758C56.9883 124.086 57.5547 123.602 58.125 123.305C58.6953 123.008 59.2891 122.859 59.9062 122.859C60.8359 122.859 61.5508 123.168 62.0508 123.785C62.5508 124.395 62.8008 125.305 62.8008 126.516C62.8008 126.805 62.8008 127.18 62.8008 127.641C62.8008 128.094 62.8008 128.57 62.8008 129.07C62.8008 129.57 62.8008 130.043 62.8008 130.488C62.8008 130.934 62.8008 131.297 62.8008 131.578C62.8008 131.859 62.8008 132 62.8008 132H61.1719C61.1719 132 61.1719 131.812 61.1719 131.438C61.1719 131.055 61.1719 130.59 61.1719 130.043C61.1719 129.488 61.1719 128.949 61.1719 128.426C61.1719 127.895 61.1719 127.477 61.1719 127.172C61.1719 126.07 61.0273 125.336 60.7383 124.969C60.457 124.594 60.0156 124.406 59.4141 124.406C58.9922 124.406 58.5859 124.531 58.1953 124.781C57.8125 125.031 57.4766 125.348 57.1875 125.73C56.9062 126.113 56.6992 126.504 56.5664 126.902V132H54.9375ZM68.332 132.211C67.6211 132.211 66.9648 132.113 66.3633 131.918C65.7617 131.715 65.2891 131.48 64.9453 131.215L65.3906 129.633C65.7812 129.992 66.2578 130.281 66.8203 130.5C67.3906 130.711 67.9102 130.816 68.3789 130.816C68.8867 130.816 69.3047 130.695 69.6328 130.453C69.9688 130.211 70.1367 129.938 70.1367 129.633C70.1367 129.305 69.9766 129.012 69.6562 128.754C69.3438 128.496 68.6953 128.246 67.7109 128.004C66.6484 127.746 65.9492 127.402 65.6133 126.973C65.2852 126.535 65.1211 126.043 65.1211 125.496C65.1211 125.293 65.1719 125.047 65.2734 124.758C65.3828 124.461 65.5625 124.168 65.8125 123.879C66.0625 123.59 66.4062 123.348 66.8438 123.152C67.2891 122.957 67.8438 122.859 68.5078 122.859C69.1484 122.859 69.6992 122.938 70.1602 123.094C70.6289 123.242 71.0156 123.398 71.3203 123.562L71.0156 125.109C70.7188 124.93 70.3477 124.746 69.9023 124.559C69.457 124.363 68.9609 124.266 68.4141 124.266C67.7734 124.266 67.3281 124.391 67.0781 124.641C66.8281 124.891 66.7031 125.148 66.7031 125.414C66.7031 125.617 66.75 125.793 66.8438 125.941C66.9453 126.082 67.1445 126.215 67.4414 126.34C67.7461 126.457 68.2031 126.586 68.8125 126.727C69.6094 126.906 70.293 127.195 70.8633 127.594C71.4336 127.992 71.7188 128.598 71.7188 129.41C71.7188 129.934 71.5664 130.41 71.2617 130.84C70.9648 131.262 70.5586 131.598 70.043 131.848C69.5352 132.09 68.9648 132.211 68.332 132.211ZM73.8281 136.301C73.8281 136.301 73.8281 136.062 73.8281 135.586C73.8281 135.117 73.8281 134.516 73.8281 133.781C73.8281 133.055 73.8281 132.293 73.8281 131.496C73.8281 130.691 73.8281 129.949 73.8281 129.27C73.8281 128.59 73.8281 128.082 73.8281 127.746C73.8281 126.652 73.8047 125.719 73.7578 124.945C73.7109 124.172 73.5859 123.535 73.3828 123.035H74.9648C75.0352 123.184 75.1016 123.398 75.1641 123.68C75.2344 123.961 75.2852 124.305 75.3164 124.711C75.7305 124.164 76.2148 123.719 76.7695 123.375C77.3242 123.031 77.9258 122.859 78.5742 122.859C79.2461 122.859 79.832 123.051 80.332 123.434C80.832 123.816 81.2188 124.344 81.4922 125.016C81.7734 125.68 81.9141 126.441 81.9141 127.301C81.9141 128.301 81.7344 129.172 81.375 129.914C81.0156 130.648 80.5312 131.215 79.9219 131.613C79.3203 132.012 78.6523 132.211 77.918 132.211C77.4414 132.211 77.0156 132.125 76.6406 131.953C76.2656 131.781 75.8711 131.551 75.457 131.262V133.312C75.457 134.016 75.4727 134.594 75.5039 135.047C75.543 135.508 75.5977 135.926 75.668 136.301H73.8281ZM77.918 130.77C78.5352 130.77 79.082 130.484 79.5586 129.914C80.043 129.344 80.2852 128.562 80.2852 127.57C80.2852 126.594 80.1055 125.816 79.7461 125.238C79.3945 124.652 78.9023 124.359 78.2695 124.359C77.7617 124.359 77.2461 124.578 76.7227 125.016C76.1992 125.453 75.7773 126.098 75.457 126.949V129.715C76.0586 130.137 76.5156 130.418 76.8281 130.559C77.1484 130.699 77.5117 130.77 77.918 130.77ZM84.4219 132C84.4219 132 84.4219 131.844 84.4219 131.531C84.4219 131.211 84.4219 130.805 84.4219 130.312C84.4219 129.82 84.4219 129.309 84.4219 128.777C84.4219 128.246 84.4219 127.77 84.4219 127.348C84.4219 126.488 84.4141 125.672 84.3984 124.898C84.3906 124.117 84.3555 123.496 84.293 123.035H86.0508V127.828C86.0508 128.203 86.0547 128.66 86.0625 129.199C86.0781 129.73 86.0977 130.254 86.1211 130.77C86.1523 131.277 86.1875 131.688 86.2266 132H84.4219ZM85.2188 121.371C84.8906 121.371 84.625 121.254 84.4219 121.02C84.2188 120.785 84.1172 120.508 84.1172 120.188C84.1172 119.859 84.2188 119.578 84.4219 119.344C84.625 119.109 84.8906 118.992 85.2188 118.992C85.5469 118.992 85.8164 119.109 86.0273 119.344C86.2461 119.578 86.3555 119.859 86.3555 120.188C86.3555 120.508 86.2461 120.785 86.0273 121.02C85.8164 121.254 85.5469 121.371 85.2188 121.371ZM89.0859 132V126.598C89.0859 125.738 89.0352 125.008 88.9336 124.406C88.8398 123.797 88.7422 123.34 88.6406 123.035H90.2227C90.293 123.223 90.3594 123.504 90.4219 123.879C90.4922 124.254 90.543 124.547 90.5742 124.758C91.0039 124.141 91.4883 123.672 92.0273 123.352C92.5664 123.023 93.0352 122.859 93.4336 122.859C93.9258 122.859 94.3203 123 94.6172 123.281C94.9141 123.555 95.1289 123.918 95.2617 124.371C95.3945 124.816 95.4609 125.297 95.4609 125.812L94.0547 126.117C94.0547 125.68 93.9727 125.293 93.8086 124.957C93.6445 124.613 93.3867 124.441 93.0352 124.441C92.793 124.441 92.5156 124.566 92.2031 124.816C91.8906 125.059 91.5977 125.367 91.3242 125.742C91.0508 126.117 90.8477 126.504 90.7148 126.902V132H89.0859ZM100.605 132.211C99.8633 132.211 99.168 132.039 98.5195 131.695C97.8789 131.352 97.3633 130.84 96.9727 130.16C96.582 129.48 96.3867 128.645 96.3867 127.652C96.3867 126.199 96.7656 125.039 97.5234 124.172C98.2812 123.297 99.3086 122.859 100.605 122.859C101.574 122.859 102.32 123.074 102.844 123.504C103.367 123.926 103.73 124.457 103.934 125.098C104.145 125.738 104.25 126.391 104.25 127.055C104.25 127.133 104.25 127.246 104.25 127.395C104.25 127.543 104.246 127.66 104.238 127.746H97.6992V126.516H102.668C102.668 125.758 102.461 125.18 102.047 124.781C101.633 124.383 101.109 124.184 100.477 124.184C99.7031 124.184 99.0977 124.457 98.6602 125.004C98.2305 125.551 98.0156 126.406 98.0156 127.57C98.0156 128.656 98.2773 129.461 98.8008 129.984C99.332 130.508 100.008 130.77 100.828 130.77C101.391 130.77 101.945 130.707 102.492 130.582C103.039 130.449 103.582 130.219 104.121 129.891L104.297 131.344C103.672 131.664 103.066 131.887 102.48 132.012C101.902 132.145 101.277 132.211 100.605 132.211Z" fill="#D4AF37"/>
</svg>
